<?xml version="1.0" standalone="no"?><!DOCTYPE svg PUBLIC "-//W3C//DTD SVG 1.1//EN" "http://www.w3.org/Graphics/SVG/1.1/DTD/svg11.dtd"><svg t="1769174778767" class="icon" viewBox="0 0 1024 1024" version="1.1" xmlns="http://www.w3.org/2000/svg" p-id="17710" xmlns:xlink="http://www.w3.org/1999/xlink" width="200" height="200"><path d="M511.744128 0C229.261369 0 0 229.261369 0 511.744128v11.258371c1.535232 87.508246 26.098951 172.969515 70.62069 248.707646l6.140929 10.234882-25.587206 70.108946-1.535233 5.117441c-13.817091 48.103948 11.258371 97.743128 57.315343 114.118941l6.140929 2.046976c8.187906 2.558721 16.887556 3.582209 25.587207 3.582209h158.640679l-8.69965-4.093953c69.597201 33.775112 145.847076 51.174413 223.12044 51.174413 282.482759 0 511.744128-229.261369 511.744128-511.744128S794.738631 0 511.744128 0z m0 941.609195c-66.014993 0-129.471264-14.84058-187.298351-42.986506-5.629185-2.558721-11.770115-4.093953-17.911044-4.093953H138.170915c-5.629185 0-10.746627-4.605697-10.746627-10.746627 0-1.023488 0-2.046977 0.511744-3.070465l0.511744-2.046976 32.23988-88.01999c4.605697-12.281859 2.558721-26.098951-4.605697-37.357322C107.466267 681.643178 81.87906 597.717141 81.87906 511.232384 81.87906 274.294853 274.294853 81.87906 511.744128 81.87906s429.865067 192.415792 429.865067 429.865068-192.415792 429.865067-429.865067 429.865067z" p-id="17711" fill="#cdcdcd"></path><path d="M611.534233 640.191904c12.281859-19.446277 37.357321-25.075462 56.803598-13.305347 18.934533 11.770115 25.075462 36.333833 13.817092 55.78011-56.803598 94.16092-179.622189 124.353823-273.783109 67.03848-27.634183-16.887556-50.662669-39.916042-67.038481-67.03848-11.258371-19.446277-5.117441-45.033483 14.84058-56.291854 19.446277-11.258371 44.009995-5.117441 55.78011 13.817091 33.263368 55.268366 105.41929 73.17941 160.687656 39.404298 15.352324-9.723138 29.169415-23.54023 38.892554-39.404298z" p-id="17712" fill="#cdcdcd"></path></svg>