<?xml version="1.0" standalone="no"?><!DOCTYPE svg PUBLIC "-//W3C//DTD SVG 1.1//EN" "http://www.w3.org/Graphics/SVG/1.1/DTD/svg11.dtd"><svg t="1769184718956" class="icon" viewBox="0 0 1024 1024" version="1.1" xmlns="http://www.w3.org/2000/svg" p-id="20821" xmlns:xlink="http://www.w3.org/1999/xlink" width="200" height="200"><path d="M502.909156 225.575822c153.952711 0 278.755556 124.802844 278.755555 278.755556s-124.802844 278.755556-278.755555 278.755555-278.755556-124.802844-278.755556-278.755555 124.802844-278.755556 278.755556-278.755556z m0 34.133334c-135.105422 0-244.622222 109.5168-244.622223 244.622222 0 135.099733 109.5168 244.622222 244.622223 244.622222 135.099733 0 244.622222-109.522489 244.622222-244.622222 0-135.105422-109.522489-244.622222-244.622222-244.622222z" fill="#cdcdcd" p-id="20822"></path><path d="M508.598044 322.286933a17.066667 17.066667 0 1 1 0 34.133334c-56.917333 0-107.963733 32.0512-132.636444 81.567289a17.066667 17.066667 0 1 1-30.549333-15.223467c30.407111-61.024711 93.240889-100.477156 163.185777-100.477156z" fill="#cdcdcd" p-id="20823"></path><path d="M679.617422 686.728533a16.594489 16.594489 0 0 1 23.466667 0l78.222222 78.222223a16.594489 16.594489 0 1 1-23.466667 23.466666l-78.222222-78.222222a16.594489 16.594489 0 0 1 0-23.466667z" fill="#cdcdcd" p-id="20824"></path></svg>